# xmcd CD database file
#
# Track frame offsets:
#	150
#	13243
#	26757
#	38543
#	52670
#	64206
#	75240
#	88113
#	102073
#	116590
#	130550
#	145402
#	160142
#	174659
#	188591
#	202272
#	213111
#
# Disc length: 3152 seconds
#
# Revision: 3
# Processed by: cddbd v1.5.1PL0 Copyright (c) Steve Scherf et al.
# Submitted via: CDex 1.51
#
DISCID=da0c4e11
DTITLE=° Ella Fitzgerald ° - Mr. Paganini
DYEAR=1900
DGENRE=Jazz
TTITLE0=Just a simple melody
TTITLE1=My man
TTITLE2=A-Tisket, A-Tasket
TTITLE3=My heart belongs to daddy
TTITLE4=It's only a paper moon
TTITLE5=Flying home
TTITLE6=You won't be satisfield
TTITLE7=Oh, lady, be good
TTITLE8=How high the moon
TTITLE9=Basin street blues
TTITLE10=I didn't mean a word Isay
TTITLE11=I've got the world on the string
TTITLE12=Ain't nobody's buisness but my own
TTITLE13=Smooth sailing
TTITLE14=Air mail special
TTITLE15=Goody, goody
TTITLE16=Mr. Paganini
EXTD=
EXTT0=
EXTT1=
EXTT2=
EXTT3=
EXTT4=
EXTT5=
EXTT6=
EXTT7=
EXTT8=
EXTT9=
EXTT10=
EXTT11=
EXTT12=
EXTT13=
EXTT14=
EXTT15=
EXTT16=
PLAYORDER=
